<svg width="438" height="425" xmlns="http://www.w3.org/2000/svg" xmlns:xlink="http://www.w3.org/1999/xlink" xml:space="preserve" overflow="hidden"><g transform="translate(-421 -148)"><path d="M421 489.234 542.484 559 824 397.104 699.012 324 421 489.234Z" fill="#D9D9D9" fill-rule="evenodd"/><path d="M654 355 699 355 654 405 654 355Z" fill="#DEF6FF" fill-rule="evenodd"/><path d="M671.921 310.137C700.854 294 724 307.832 724 340.107 724 372.382 700.854 411.573 671.921 428.863 644.146 445 621 431.168 621 398.893 621 366.618 642.989 326.275 671.921 310.137ZM655.719 402.351C696.225 355.092 696.225 355.092 696.225 355.092 654.562 356.244 654.562 356.244 654.562 356.244 655.719 402.351 655.719 402.351 655.719 402.351Z" fill="#5FB7DD" fill-rule="evenodd"/><path d="M528.846 356 521 351.504 817.154 181 825 185.496 528.846 356Z" fill="#BFD4DB" fill-rule="evenodd"/><path d="M529 354.438C825 184 825 184 825 184 825 385.834 825 385.834 825 385.834 825 390.32 821.624 397.047 818.247 399.29 536.878 560.757 536.878 560.757 536.878 560.757 533.502 563 530.125 560.757 530.125 556.272L529 354.438ZM671.935 426.201C700.072 410.503 722.582 372.379 722.582 340.982 721.456 308.465 698.947 296.13 671.935 311.828 643.798 327.527 622.414 366.772 622.414 398.169 622.414 429.565 644.924 443.021 671.935 426.201Z" fill="#DEF6FF" fill-rule="evenodd"/><path d="M529.8 556.388C528.7 355.489 528.7 355.489 528.7 355.489 521 351 521 351 521 351 522.1 551.899 522.1 551.899 522.1 551.899 522.1 554.144 523.2 556.388 524.3 557.511 526.5 558.633 528.7 559.755 532 562 530.9 560.878 529.8 558.633 529.8 556.388Z" fill="#B2DDEA" fill-rule="evenodd"/><path d="M587.778 313C580 308.333 580 308.333 580 308.333 581.111 307.167 581.111 307.167 582.222 306 590 310.667 590 310.667 590 310.667 588.889 311.833 587.778 311.833 587.778 313Z" fill="#87ABBB" fill-rule="evenodd"/><path d="M590 311C582 306 582 306 582 306 582 306 582 306 582 306 590 311 590 311 590 311 590 311 590 311 590 311Z" fill="#84A7B7" fill-rule="evenodd"/><path d="M589.875 311C582 306.2 582 306.2 582 306.2 583.125 305 583.125 305 583.125 305 591 309.8 591 309.8 591 309.8 591 309.8 591 309.8 589.875 311Z" fill="#80A3B2" fill-rule="evenodd"/><path d="M591 310C583 305.2 583 305.2 583 305.2 583 305.2 583 305.2 583 304 591 308.8 591 308.8 591 308.8 591 310 591 310 591 310Z" fill="#7D9EAD" fill-rule="evenodd"/><path d="M590.875 309C583 304 583 304 583 304 584.125 304 584.125 304 584.125 304 592 309 592 309 592 309 592 309 590.875 309 590.875 309Z" fill="#7A9AA8" fill-rule="evenodd"/><path d="M592 309C584 304.2 584 304.2 584 304.2 584 304.2 584 304.2 584 303 592 307.8 592 307.8 592 307.8 592 309 592 309 592 309Z" fill="#7696A4" fill-rule="evenodd"/><path d="M592 307C584 303 584 303 584 303 584 303 584 303 584 303 592 307 592 307 592 307 592 307 592 307 592 307Z" fill="#73929F" fill-rule="evenodd"/><path d="M591.875 307C584 303 584 303 584 303 584 303 585.125 303 585.125 302 593 306 593 306 593 306 591.875 307 591.875 307 591.875 307Z" fill="#708D9A" fill-rule="evenodd"/><path d="M593 306C585 302 585 302 585 302 585 302 585 302 585 302 593 306 593 306 593 306 593 306 593 306 593 306Z" fill="#6C8996" fill-rule="evenodd"/><path d="M593 306C585 302 585 302 585 302 585 302 585 301 585 301 593 305 593 305 593 305 593 305 593 306 593 306Z" fill="#698591" fill-rule="evenodd"/><path d="M593 305C585 301 585 301 585 301 585 301 585 301 585 301 593 305 593 305 593 305 593 305 593 305 593 305Z" fill="#65808C" fill-rule="evenodd"/><path d="M593 305C585 301 585 301 585 301 585 301 585 300 585 300 593 304 593 304 593 304 593 304 593 305 593 305Z" fill="#627C88" fill-rule="evenodd"/><path d="M592.875 304C585 299.2 585 299.2 585 299.2 586.125 299.2 586.125 299.2 586.125 298 594 302.8 594 302.8 594 302.8 592.875 304 592.875 304 592.875 304Z" fill="#5F7883" fill-rule="evenodd"/><path d="M594 303C586 298 586 298 586 298 586 298 586 298 586 298 594 303 594 303 594 303 594 303 594 303 594 303Z" fill="#5B747E" fill-rule="evenodd"/><path d="M594 303C586.222 298.6 586.222 298.6 586.222 298.6 586.222 297.5 586.222 297.5 586.222 296.4 586.222 294.2 585.111 293.1 584 292 591.778 296.4 591.778 296.4 591.778 296.4 592.889 297.5 594 298.6 594 300.8 594 301.9 594 301.9 594 303Z" fill="#586F7A" fill-rule="evenodd"/><path d="M587.875 297C580 293 580 293 580 293 580 293 580 293 581.125 292 589 296 589 296 589 296 587.875 297 587.875 297 587.875 297Z" fill="#B2C5CC" fill-rule="evenodd"/><path d="M589 296C581 292 581 292 581 292 581 292 581 292 581 292 589 296 589 296 589 296 589 296 589 296 589 296Z" fill="#ADC0C7" fill-rule="evenodd"/><path d="M588.875 296C581 292 581 292 581 292 582.125 292 582.125 292 582.125 292 590 296 590 296 590 296 590 296 588.875 296 588.875 296Z" fill="#A9BBC2" fill-rule="evenodd"/><path d="M590 296C582 292 582 292 582 292 582 292 582 292 582 292 590 296 590 296 590 296 590 296 590 296 590 296Z" fill="#A4B6BD" fill-rule="evenodd"/><path d="M589.875 296C582 292 582 292 582 292 582 292 583.125 292 583.125 292 591 296 591 296 591 296 589.875 296 589.875 296 589.875 296Z" fill="#A0B1B8" fill-rule="evenodd"/><path d="M591 296C583 292 583 292 583 292 583 292 583 292 583 292 591 296 591 296 591 296 591 296 591 296 591 296Z" fill="#9BACB3" fill-rule="evenodd"/><path d="M591 296C583 292 583 292 583 292 583 292 583 292 583 292 591 296 591 296 591 296 591 296 591 296 591 296Z" fill="#97A7AD" fill-rule="evenodd"/><path d="M590.875 296C583 292 583 292 583 292 584.125 292 584.125 292 584.125 292 592 296 592 296 592 296 592 296 590.875 296 590.875 296Z" fill="#93A2A8" fill-rule="evenodd"/><path d="M592 296C584 292 584 292 584 292 584 292 584 292 584 292 592 296 592 296 592 296 592 296 592 296 592 296Z" fill="#8E9DA3" fill-rule="evenodd"/><path d="M592 296C584 292 584 292 584 292 584 292 584 292 584 292 592 296 592 296 592 296 592 296 592 296 592 296Z" fill="#8A999E" fill-rule="evenodd"/><path d="M582 313C574.125 308.556 574.125 308.556 574.125 308.556 573 308.556 573 306.333 573 304.111 573 304.111 573 304.111 573 303 580.875 307.444 580.875 307.444 580.875 307.444 580.875 308.556 580.875 308.556 580.875 308.556 580.875 310.778 580.875 313 582 313Z" fill="#738085" fill-rule="evenodd"/><path d="M581 307C573 303 573 303 573 303 573 303 573 303 573 302 581 306 581 306 581 306 581 307 581 307 581 307Z" fill="#78858A" fill-rule="evenodd"/><path d="M581 306C573 302 573 302 573 302 573 302 573 302 573 302 581 306 581 306 581 306 581 306 581 306 581 306Z" fill="#7C8A8F" fill-rule="evenodd"/><path d="M581 306C573 302 573 302 573 302 573 301 573 301 573 301 581 305 581 305 581 305 581 305 581 305 581 306Z" fill="#818F94" fill-rule="evenodd"/><path d="M581 305C573 301 573 301 573 301 573 301 573 301 573 300 581 304 581 304 581 304 581 305 581 305 581 305Z" fill="#859499" fill-rule="evenodd"/><path d="M580.875 304C573 300 573 300 573 300 574.125 300 574.125 300 574.125 300 582 304 582 304 582 304 582 304 580.875 304 580.875 304Z" fill="#8A999E" fill-rule="evenodd"/><path d="M582 304C574 299.2 574 299.2 574 299.2 574 299.2 574 299.2 574 298 582 302.8 582 302.8 582 302.8 582 304 582 304 582 304Z" fill="#8E9DA3" fill-rule="evenodd"/><path d="M582 303C574 298 574 298 574 298 574 298 574 298 574 298 582 303 582 303 582 303 582 303 582 303 582 303Z" fill="#93A2A8" fill-rule="evenodd"/><path d="M582 303C574 298.2 574 298.2 574 298.2 574 298.2 574 298.2 574 297 582 301.8 582 301.8 582 301.8 582 303 582 303 582 303Z" fill="#97A7AD" fill-rule="evenodd"/><path d="M581.875 302C574 297 574 297 574 297 575.125 297 575.125 297 575.125 297 583 302 583 302 583 302 583 302 581.875 302 581.875 302Z" fill="#9BACB3" fill-rule="evenodd"/><path d="M583 302C575 297.2 575 297.2 575 297.2 575 297.2 575 296 575 296 583 300.8 583 300.8 583 300.8 583 302 583 302 583 302Z" fill="#A0B1B8" fill-rule="evenodd"/><path d="M583 301C575 296 575 296 575 296 575 296 575 296 576.143 296 583 301 583 301 583 301 583 301 583 301 583 301Z" fill="#A4B6BD" fill-rule="evenodd"/><path d="M582.857 301C576 296.2 576 296.2 576 296.2 576 296.2 576 295 576 295 584 299.8 584 299.8 584 299.8 584 299.8 584 301 582.857 301Z" fill="#A9BBC2" fill-rule="evenodd"/><path d="M583.875 300C576 295.2 576 295.2 576 295.2 576 295.2 576 295.2 577.125 294 585 298.8 585 298.8 585 298.8 583.875 300 583.875 300 583.875 300Z" fill="#ADC0C7" fill-rule="evenodd"/><path d="M584.778 298C577 294 577 294 577 294 577 294 578.111 293 579.222 293 587 297 587 297 587 297 585.889 297 584.778 298 584.778 298Z" fill="#B2C5CC" fill-rule="evenodd"/><path d="M574.889 313C568.222 308.556 568.222 308.556 568.222 308.556 568.222 308.556 568.222 307.444 568.222 307.444 568.222 305.222 567.111 303 566 303 573.778 307.444 573.778 307.444 573.778 307.444 574.889 307.444 576 309.667 576 311.889 576 311.889 576 313 574.889 313Z" fill="#586F7A" fill-rule="evenodd"/><path d="M568.667 323C562 319 562 319 562 319 562 319 563.111 318 564.222 318 572 322 572 322 572 322 570.889 322 569.778 323 568.667 323Z" fill="#87ABBB" fill-rule="evenodd"/><path d="M572 322C564 317.2 564 317.2 564 317.2 564 316 564 316 564 316 572 320.8 572 320.8 572 320.8 572 320.8 572 320.8 572 322Z" fill="#84A7B7" fill-rule="evenodd"/><path d="M571.875 321C564 316.2 564 316.2 564 316.2 564 316.2 565.125 316.2 565.125 315 573 319.8 573 319.8 573 319.8 573 321 571.875 321 571.875 321Z" fill="#80A3B2" fill-rule="evenodd"/><path d="M573 320C565 315 565 315 565 315 565 315 565 315 565 315 573 320 573 320 573 320 573 320 573 320 573 320Z" fill="#7D9EAD" fill-rule="evenodd"/><path d="M573 320C565 315.2 565 315.2 565 315.2 565 315.2 565 314 566.143 314 573 318.8 573 318.8 573 318.8 573 318.8 573 320 573 320Z" fill="#7A9AA8" fill-rule="evenodd"/><path d="M572.857 319C566 314 566 314 566 314 566 314 566 314 566 314 574 319 574 319 574 319 574 319 574 319 572.857 319Z" fill="#7696A4" fill-rule="evenodd"/><path d="M574 319C566 314.2 566 314.2 566 314.2 566 314.2 566 313 566 313 574 317.8 574 317.8 574 317.8 574 317.8 574 319 574 319Z" fill="#73929F" fill-rule="evenodd"/><path d="M574 318C566 313 566 313 566 313 566 313 566 313 566 313 574 318 574 318 574 318 574 318 574 318 574 318Z" fill="#708D9A" fill-rule="evenodd"/><path d="M573.875 318C566 313.2 566 313.2 566 313.2 566 313.2 567.125 312 567.125 312 575 316.8 575 316.8 575 316.8 573.875 316.8 573.875 318 573.875 318Z" fill="#6C8996" fill-rule="evenodd"/><path d="M575 316C567 312 567 312 567 312 567 312 567 312 567 312 575 316 575 316 575 316 575 316 575 316 575 316Z" fill="#698591" fill-rule="evenodd"/><path d="M575 316C567 312 567 312 567 312 567 311 567 311 567 311 575 315 575 315 575 315 575 315 575 315 575 316Z" fill="#65808C" fill-rule="evenodd"/><path d="M575 315C567 311 567 311 567 311 567 311 567 311 567 310 575 314 575 314 575 314 575 315 575 315 575 315Z" fill="#627C88" fill-rule="evenodd"/><path d="M575 314C567 310 567 310 567 310 567 310 567 310 567 310 575 314 575 314 575 314 575 314 575 314 575 314Z" fill="#5F7883" fill-rule="evenodd"/><path d="M575 314C567 310 567 310 567 310 567 309 568.143 309 568.143 309 575 313 575 313 575 313 575 313 575 313 575 314Z" fill="#5B747E" fill-rule="evenodd"/><path d="M574.889 313C568.222 308.556 568.222 308.556 568.222 308.556 568.222 308.556 568.222 307.444 568.222 307.444 568.222 305.222 567.111 303 566 303 573.778 307.444 573.778 307.444 573.778 307.444 574.889 307.444 576 309.667 576 311.889 576 311.889 576 313 574.889 313Z" fill="#586F7A" fill-rule="evenodd"/><path d="M564 324C556 320 556 320 556 320 556 320 556 320 556 320 564 324 564 324 564 324 564 324 564 324 564 324Z" fill="#698591" fill-rule="evenodd"/><path d="M564 324C556 320 556 320 556 320 556 320 556 320 557.143 320 564 324 564 324 564 324 564 324 564 324 564 324Z" fill="#6C8996" fill-rule="evenodd"/><path d="M563.857 324C557 320 557 320 557 320 557 320 557 320 557 320 565 324 565 324 565 324 565 324 565 324 563.857 324Z" fill="#708D9A" fill-rule="evenodd"/><path d="M565 324C557 320 557 320 557 320 557 320 557 320 557 320 565 324 565 324 565 324 565 324 565 324 565 324Z" fill="#73929F" fill-rule="evenodd"/><path d="M564.875 324C557 320 557 320 557 320 557 320 557 320 558.125 320 566 324 566 324 566 324 564.875 324 564.875 324 564.875 324Z" fill="#7696A4" fill-rule="evenodd"/><path d="M566 324C558 320 558 320 558 320 558 320 558 320 558 320 566 324 566 324 566 324 566 324 566 324 566 324Z" fill="#7A9AA8" fill-rule="evenodd"/><path d="M566 324C558 320 558 320 558 320 558 320 558 320 558 320 566 324 566 324 566 324 566 324 566 324 566 324Z" fill="#7D9EAD" fill-rule="evenodd"/><path d="M565.875 324C558 320 558 320 558 320 559.125 320 559.125 320 559.125 320 567 324 567 324 567 324 567 324 567 324 565.875 324Z" fill="#80A3B2" fill-rule="evenodd"/><path d="M566.875 324C559 320 559 320 559 320 559 320 559 320 560.125 320 568 324 568 324 568 324 566.875 324 566.875 324 566.875 324Z" fill="#84A7B7" fill-rule="evenodd"/><path d="M568 324C560 320 560 320 560 320 560 320 560 319 561.143 319 568 323 568 323 568 323 568 323 568 324 568 324Z" fill="#87ABBB" fill-rule="evenodd"/><path d="M568 307C562 303 562 303 562 303 562 303 562 303 562 303 569 307 569 307 569 307 569 307 569 307 568 307Z" fill="#B2C5CC" fill-rule="evenodd"/><path d="M569.875 307C562 303 562 303 562 303 563.125 303 563.125 303 563.125 303 571 307 571 307 571 307 571 307 571 307 569.875 307Z" fill="#ADC0C7" fill-rule="evenodd"/><path d="M570.875 307C563 303 563 303 563 303 563 303 563 302 564.125 302 572 306 572 306 572 306 570.875 307 570.875 307 570.875 307Z" fill="#A9BBC2" fill-rule="evenodd"/><path d="M572 306C564 302 564 302 564 302 564 302 564 302 564 302 572 306 572 306 572 306 572 306 572 306 572 306Z" fill="#A4B6BD" fill-rule="evenodd"/><path d="M572 306C564 302 564 302 564 302 564 302 564 302 564 302 572 306 572 306 572 306 572 306 572 306 572 306Z" fill="#A0B1B8" fill-rule="evenodd"/><path d="M571.875 306C564 302 564 302 564 302 565.125 302 565.125 302 565.125 302 573 306 573 306 573 306 573 306 573 306 571.875 306Z" fill="#9BACB3" fill-rule="evenodd"/><path d="M573 306C565 302 565 302 565 302 565 302 565 303 565 303 573 307 573 307 573 307 573 307 573 307 573 306Z" fill="#97A7AD" fill-rule="evenodd"/><path d="M573 307C565 303 565 303 565 303 565 303 565 303 566.143 303 573 307 573 307 573 307 573 307 573 307 573 307Z" fill="#93A2A8" fill-rule="evenodd"/><path d="M572.857 307C566 303 566 303 566 303 566 303 566 303 566 303 574 307 574 307 574 307 574 307 574 307 572.857 307Z" fill="#8E9DA3" fill-rule="evenodd"/><path d="M574 307C566 303 566 303 566 303 566 303 566 303 566 303 574 307 574 307 574 307 574 307 574 307 574 307Z" fill="#8A999E" fill-rule="evenodd"/><path d="M564 324C556.222 319.556 556.222 319.556 556.222 319.556 555.111 318.444 554 317.333 554 315.111 554 314 554 314 555.111 314 561.778 318.444 561.778 318.444 561.778 318.444 561.778 318.444 561.778 318.444 561.778 319.556 561.778 321.778 562.889 322.889 564 324Z" fill="#738085" fill-rule="evenodd"/><path d="M561.857 319C555 314.2 555 314.2 555 314.2 555 313 555 313 555 313 563 317.8 563 317.8 563 317.8 563 317.8 561.857 317.8 561.857 319Z" fill="#78858A" fill-rule="evenodd"/><path d="M563 318C555 313.2 555 313.2 555 313.2 555 312 555 312 555 312 563 316.8 563 316.8 563 316.8 563 316.8 563 318 563 318Z" fill="#7C8A8F" fill-rule="evenodd"/><path d="M563 316C555 312 555 312 555 312 555 312 555 312 555 311 563 315 563 315 563 315 563 316 563 316 563 316Z" fill="#818F94" fill-rule="evenodd"/><path d="M563 315C555 311 555 311 555 311 555 311 555 311 555 311 563 315 563 315 563 315 563 315 563 315 563 315Z" fill="#859499" fill-rule="evenodd"/><path d="M563 315C555 311 555 311 555 311 555 311 555 310 555 310 563 314 563 314 563 314 563 314 563 315 563 315Z" fill="#8A999E" fill-rule="evenodd"/><path d="M562.875 314C555 310 555 310 555 310 556.125 310 556.125 310 556.125 310 564 314 564 314 564 314 564 314 562.875 314 562.875 314Z" fill="#8E9DA3" fill-rule="evenodd"/><path d="M564 314C556 310 556 310 556 310 556 310 556 309 556 309 564 313 564 313 564 313 564 313 564 314 564 314Z" fill="#93A2A8" fill-rule="evenodd"/><path d="M564 313C556 309 556 309 556 309 556 309 556 309 556 309 564 313 564 313 564 313 564 313 564 313 564 313Z" fill="#97A7AD" fill-rule="evenodd"/><path d="M564 313C556 308.2 556 308.2 556 308.2 556 308.2 556 307 557.143 307 564 311.8 564 311.8 564 311.8 564 311.8 564 313 564 313Z" fill="#9BACB3" fill-rule="evenodd"/><path d="M563.857 312C557 307 557 307 557 307 557 307 557 307 557 307 565 312 565 312 565 312 565 312 565 312 563.857 312Z" fill="#A0B1B8" fill-rule="evenodd"/><path d="M565 312C557 307.2 557 307.2 557 307.2 557 307.2 557 306 557 306 565 310.8 565 310.8 565 310.8 565 310.8 565 312 565 312Z" fill="#A4B6BD" fill-rule="evenodd"/><path d="M564.875 311C557 306 557 306 557 306 557 306 558.125 306 558.125 306 566 311 566 311 566 311 566 311 564.875 311 564.875 311Z" fill="#A9BBC2" fill-rule="evenodd"/><path d="M566 311C558 306.2 558 306.2 558 306.2 558 305 558 305 558 305 566 309.8 566 309.8 566 309.8 566 309.8 566 309.8 566 311Z" fill="#ADC0C7" fill-rule="evenodd"/><path d="M565.778 310C558 305.333 558 305.333 558 305.333 559.111 304.167 560.222 304.167 561.333 303 568 307.667 568 307.667 568 307.667 568 308.833 566.889 308.833 565.778 310Z" fill="#B2C5CC" fill-rule="evenodd"/><path d="M557 323C549.125 318.556 549.125 318.556 549.125 318.556 549.125 318.556 549.125 317.444 549.125 317.444 549.125 315.222 549.125 314.111 548 313 555.875 317.444 555.875 317.444 555.875 317.444 557 318.556 557 319.667 557 321.889 557 323 557 323 557 323Z" fill="#586F7A" fill-rule="evenodd"/><path d="M550.556 334C542 330 542 330 542 330 543.222 329 544.444 329 544.444 328 553 332 553 332 553 332 553 333 551.778 333 550.556 334Z" fill="#87ABBB" fill-rule="evenodd"/><path d="M552.875 332C545 328 545 328 545 328 546.125 328 546.125 328 546.125 327 554 331 554 331 554 331 554 332 552.875 332 552.875 332Z" fill="#84A7B7" fill-rule="evenodd"/><path d="M554 331C546 327 546 327 546 327 546 327 546 327 547.143 327 554 331 554 331 554 331 554 331 554 331 554 331Z" fill="#80A3B2" fill-rule="evenodd"/><path d="M553.857 331C547 326.2 547 326.2 547 326.2 547 326.2 547 325 547 325 555 329.8 555 329.8 555 329.8 555 329.8 555 331 553.857 331Z" fill="#7D9EAD" fill-rule="evenodd"/><path d="M555 330C547 325 547 325 547 325 547 325 547 325 547 325 555 330 555 330 555 330 555 330 555 330 555 330Z" fill="#7A9AA8" fill-rule="evenodd"/><path d="M554.875 330C547 325.2 547 325.2 547 325.2 547 324 547 324 548.125 324 556 328.8 556 328.8 556 328.8 554.875 328.8 554.875 328.8 554.875 330Z" fill="#7696A4" fill-rule="evenodd"/><path d="M556 329C548 324 548 324 548 324 548 324 548 324 548 324 556 329 556 329 556 329 556 329 556 329 556 329Z" fill="#73929F" fill-rule="evenodd"/><path d="M556 329C548 324.2 548 324.2 548 324.2 548 323 548 323 548 323 556 327.8 556 327.8 556 327.8 556 327.8 556 327.8 556 329Z" fill="#708D9A" fill-rule="evenodd"/><path d="M556 328C548 323 548 323 548 323 548 323 548 323 548 323 556 328 556 328 556 328 556 328 556 328 556 328Z" fill="#6C8996" fill-rule="evenodd"/><path d="M555.875 328C548 323.2 548 323.2 548 323.2 548 322 549.125 322 549.125 322 557 326.8 557 326.8 557 326.8 555.875 326.8 555.875 326.8 555.875 328Z" fill="#698591" fill-rule="evenodd"/><path d="M557 327C549 322.2 549 322.2 549 322.2 549 322.2 549 322.2 549 321 557 325.8 557 325.8 557 325.8 557 327 557 327 557 327Z" fill="#65808C" fill-rule="evenodd"/><path d="M557 325C549 321 549 321 549 321 549 321 549 321 549 321 557 325 557 325 557 325 557 325 557 325 557 325Z" fill="#627C88" fill-rule="evenodd"/><path d="M557 325C549 321 549 321 549 321 549 321 549 320 549 320 557 324 557 324 557 324 557 324 557 325 557 325Z" fill="#5F7883" fill-rule="evenodd"/><path d="M557 324C549 320 549 320 549 320 549 320 549 320 549 319 557 323 557 323 557 323 557 324 557 324 557 324Z" fill="#5B747E" fill-rule="evenodd"/><path d="M557 323C549.125 318.556 549.125 318.556 549.125 318.556 549.125 318.556 549.125 317.444 549.125 317.444 549.125 315.222 549.125 314.111 548 313 555.875 317.444 555.875 317.444 555.875 317.444 557 318.556 557 319.667 557 321.889 557 323 557 323 557 323Z" fill="#586F7A" fill-rule="evenodd"/><path d="M549.875 319C542 314.2 542 314.2 542 314.2 543.125 313 543.125 313 543.125 313 551 317.8 551 317.8 551 317.8 551 317.8 549.875 317.8 549.875 319Z" fill="#B2C5CC" fill-rule="evenodd"/><path d="M551.875 318C544 313 544 313 544 313 544 313 545.125 313 545.125 313 553 318 553 318 553 318 553 318 551.875 318 551.875 318Z" fill="#ADC0C7" fill-rule="evenodd"/><path d="M553 318C545 313 545 313 545 313 545 313 545 313 545 313 553 318 553 318 553 318 553 318 553 318 553 318Z" fill="#A9BBC2" fill-rule="evenodd"/><path d="M552.875 318C545 313 545 313 545 313 546.125 313 546.125 313 546.125 313 554 318 554 318 554 318 554 318 552.875 318 552.875 318Z" fill="#A4B6BD" fill-rule="evenodd"/><path d="M554 318C546 313 546 313 546 313 546 313 546 313 546 313 554 318 554 318 554 318 554 318 554 318 554 318Z" fill="#A0B1B8" fill-rule="evenodd"/><path d="M553.875 318C546 313 546 313 546 313 546 313 547.125 313 547.125 313 555 318 555 318 555 318 553.875 318 553.875 318 553.875 318Z" fill="#9BACB3" fill-rule="evenodd"/><path d="M555 318C547 313 547 313 547 313 547 313 547 313 547 313 555 318 555 318 555 318 555 318 555 318 555 318Z" fill="#97A7AD" fill-rule="evenodd"/><path d="M555 318C547 313 547 313 547 313 547 313 547 313 547 313 555 318 555 318 555 318 555 318 555 318 555 318Z" fill="#93A2A8" fill-rule="evenodd"/><path d="M554.875 318C547 313 547 313 547 313 547 313 547 313 548.125 313 556 318 556 318 556 318 554.875 318 554.875 318 554.875 318Z" fill="#8E9DA3" fill-rule="evenodd"/><path d="M556 318C548 313 548 313 548 313 548 313 548 313 548 313 556 318 556 318 556 318 556 318 556 318 556 318Z" fill="#8A999E" fill-rule="evenodd"/><path d="M546 334C538.222 329.556 538.222 329.556 538.222 329.556 537.111 328.444 536 327.333 536 325.111 536 325.111 536 324 536 324 543.778 328.444 543.778 328.444 543.778 328.444 543.778 328.444 543.778 329.556 543.778 329.556 543.778 331.778 544.889 332.889 546 334Z" fill="#738085" fill-rule="evenodd"/><path d="M544 329C536 324.2 536 324.2 536 324.2 536 324.2 536 323 536 323 544 327.8 544 327.8 544 327.8 544 327.8 544 329 544 329Z" fill="#78858A" fill-rule="evenodd"/><path d="M543.875 328C536 323.2 536 323.2 536 323.2 536 323.2 537.125 323.2 537.125 322 545 326.8 545 326.8 545 326.8 543.875 328 543.875 328 543.875 328Z" fill="#7C8A8F" fill-rule="evenodd"/><path d="M545 327C537 322 537 322 537 322 537 322 537 322 537 322 545 327 545 327 545 327 545 327 545 327 545 327Z" fill="#818F94" fill-rule="evenodd"/><path d="M545 327C537 322.2 537 322.2 537 322.2 537 322.2 537 321 537 321 545 325.8 545 325.8 545 325.8 545 325.8 545 327 545 327Z" fill="#859499" fill-rule="evenodd"/><path d="M545 325C537 321 537 321 537 321 537 321 537 321 537 321 545 325 545 325 545 325 545 325 545 325 545 325Z" fill="#8A999E" fill-rule="evenodd"/><path d="M545 325C537 321 537 321 537 321 537 321 537 320 537 320 545 324 545 324 545 324 545 324 545 325 545 325Z" fill="#8E9DA3" fill-rule="evenodd"/><path d="M544.875 324C537 320 537 320 537 320 538.125 320 538.125 320 538.125 320 546 324 546 324 546 324 546 324 544.875 324 544.875 324Z" fill="#93A2A8" fill-rule="evenodd"/><path d="M546 324C538 320 538 320 538 320 538 319 538 319 538 319 546 323 546 323 546 323 546 323 546 323 546 324Z" fill="#97A7AD" fill-rule="evenodd"/><path d="M546 323C538 319 538 319 538 319 538 319 538 319 538 319 546 323 546 323 546 323 546 323 546 323 546 323Z" fill="#9BACB3" fill-rule="evenodd"/><path d="M545.875 323C538 319 538 319 538 319 538 318 539.125 318 539.125 318 547 322 547 322 547 322 545.875 322 545.875 322 545.875 323Z" fill="#A0B1B8" fill-rule="evenodd"/><path d="M547 322C539 318 539 318 539 318 539 318 539 318 539 318 547 322 547 322 547 322 547 322 547 322 547 322Z" fill="#A4B6BD" fill-rule="evenodd"/><path d="M547 322C539 317.2 539 317.2 539 317.2 539 316 539 316 540.143 316 547 320.8 547 320.8 547 320.8 547 320.8 547 320.8 547 322Z" fill="#A9BBC2" fill-rule="evenodd"/><path d="M546.857 321C540 316.2 540 316.2 540 316.2 540 316.2 540 315 540 315 548 319.8 548 319.8 548 319.8 548 319.8 548 321 546.857 321Z" fill="#ADC0C7" fill-rule="evenodd"/><path d="M547.778 320C540 315.2 540 315.2 540 315.2 541.111 315.2 542.222 314 542.222 314 550 318.8 550 318.8 550 318.8 548.889 318.8 548.889 320 547.778 320Z" fill="#B2C5CC" fill-rule="evenodd"/><path d="M817.122 153.253C821.624 151 825 152.126 825 156.632 825 184.791 825 184.791 825 184.791 529 356 529 356 529 356 529 327.841 529 327.841 529 327.841 529 323.335 532.376 317.703 536.878 315.451L817.122 153.253ZM568.392 323.335C572.894 321.082 576.27 316.577 576.27 312.071 576.27 307.566 572.894 305.313 568.392 307.566 565.015 309.819 561.639 315.451 561.639 319.956 561.639 324.462 565.015 325.588 568.392 323.335ZM550.384 334.599C554.886 332.346 557.137 326.714 557.137 322.209 557.137 317.703 554.886 316.577 550.384 318.83 547.008 321.082 543.631 325.588 543.631 330.093 543.631 334.599 547.008 336.852 550.384 334.599ZM587.525 313.198C590.901 310.945 594.278 305.313 594.278 300.808 594.278 297.429 590.901 295.176 587.525 297.429 583.023 299.681 580.772 305.313 580.772 308.692 580.772 313.198 583.023 315.451 587.525 313.198Z" fill="#A9D6EA" fill-rule="evenodd"/><path d="M587.5 297.222C590.75 295 594 297.222 594 300.556 594 305 590.75 310.556 587.5 312.778 583.167 315 581 312.778 581 308.333 581 305 583.167 299.444 587.5 297.222Z" fill="#5FB7DD" fill-rule="evenodd"/><path d="M568.462 307.222C572.769 305 576 307.222 576 311.667 576 316.111 572.769 320.556 568.462 322.778 565.231 325 562 323.889 562 319.444 562 315 565.231 309.444 568.462 307.222Z" fill="#5FB7DD" fill-rule="evenodd"/><path d="M550.5 318.333C554.833 316 557 317.167 557 321.833 557 326.5 554.833 332.333 550.5 334.667 547.25 337 544 334.667 544 330 544 325.333 547.25 320.667 550.5 318.333Z" fill="#5FB7DD" fill-rule="evenodd"/><path d="M529 356 521 351.454 521 323 529 327.546 529 356Z" fill="#5FB7DD" fill-rule="evenodd"/><path d="M818.631 152.5C818.631 152.5 819.754 152.5 819.754 152.5 819.754 152.5 819.754 152.5 819.754 152.5 819.754 152.5 820.877 152.5 820.877 152.5 820.877 152.5 820.877 152.5 820.877 152.5 822 152.5 822 152.5 822 152.5 822 152.5 822 152.5 822 152.5 814.138 148 814.138 148 814.138 148 814.138 148 814.138 148 814.138 148 814.138 148 814.138 148 814.138 148 813.015 148 813.015 148 813.015 148 813.015 148 813.015 148 813.015 148 813.015 148 813.015 148 813.015 148 813.015 148 813.015 148 813.015 148 813.015 148 811.892 148 811.892 148 811.892 148 811.892 148 811.892 148 811.892 148 811.892 148 811.892 148 811.892 148 811.892 148 811.892 148 811.892 148 810.769 148 810.769 148 810.769 148 810.769 148 810.769 148 810.769 148 810.769 148 810.769 148 810.769 148 810.769 148 809.646 148 809.646 148 809.646 148 809.646 149.125 528.862 311.125 528.862 311.125 528.862 311.125 528.862 311.125 527.739 311.125 527.739 312.25 527.739 312.25 526.616 312.25 526.616 312.25 526.616 312.25 526.616 312.25 526.616 312.25 526.616 313.375 526.616 313.375 526.616 313.375 525.493 313.375 525.493 313.375 525.493 313.375 525.493 313.375 525.493 313.375 525.493 313.375 525.493 313.375 525.493 314.5 525.493 314.5 524.369 314.5 524.369 314.5 524.369 314.5 524.369 314.5 524.369 314.5 524.369 314.5 524.369 314.5 524.369 314.5 524.369 314.5 524.369 315.625 524.369 315.625 524.369 315.625 524.369 315.625 523.246 315.625 523.246 316.75 523.246 316.75 523.246 316.75 523.246 316.75 523.246 316.75 523.246 316.75 523.246 316.75 523.246 316.75 523.246 316.75 523.246 316.75 523.246 316.75 523.246 317.875 523.246 317.875 523.246 317.875 523.246 317.875 522.123 317.875 522.123 317.875 522.123 317.875 522.123 317.875 522.123 317.875 522.123 317.875 522.123 317.875 522.123 319 522.123 319 522.123 319 522.123 319 522.123 319 522.123 320.125 522.123 320.125 522.123 320.125 522.123 320.125 522.123 320.125 522.123 320.125 522.123 320.125 522.123 320.125 522.123 320.125 522.123 320.125 522.123 320.125 522.123 321.25 522.123 321.25 522.123 321.25 522.123 321.25 522.123 321.25 522.123 322.375 521 322.375 521 322.375 521 322.375 521 322.375 521 322.375 521 322.375 521 323.5 521 323.5 528.862 328 528.862 328 528.862 328 528.862 328 528.862 326.875 528.862 326.875 528.862 326.875 528.862 326.875 528.862 325.75 529.985 325.75 529.985 324.625 529.985 324.625 529.985 324.625 529.985 324.625 529.985 324.625 529.985 323.5 529.985 323.5 529.985 322.375 529.985 322.375 529.985 322.375 529.985 322.375 531.108 322.375 531.108 321.25 531.108 321.25 531.108 321.25 531.108 321.25 531.108 321.25 532.231 320.125 532.231 320.125 532.231 319 532.231 319 532.231 319 532.231 319 533.354 319 533.354 317.875 533.354 317.875 533.354 317.875 533.354 317.875 533.354 317.875 534.478 316.75 534.478 316.75 534.478 316.75 534.478 316.75 535.601 316.75 535.601 316.75 535.601 315.625 535.601 315.625 536.724 315.625 816.384 153.625 816.384 153.625 816.384 153.625 817.507 152.5 817.507 152.5 818.631 152.5 818.631 152.5 818.631 152.5 818.631 152.5Z" fill="#95C4DE" fill-rule="evenodd"/><path d="M815.8 265.648C839.6 260 843 305.185 824.867 318.741 822.6 321 812.4 318.741 812.4 315.352 809 301.796 829.4 287.111 819.2 273.556 819.2 273.556 818.067 272.426 816.933 271.296 815.8 269.037 810.133 266.778 815.8 265.648Z" fill="#2B0D04" fill-rule="evenodd"/><path d="M726.679 351.286C726.679 351.286 716.714 357 712.286 355.857 706.75 354.714 699 350.143 702.321 349 705.643 346.714 713.393 347.857 713.393 345.571 714.5 343.286 708.964 343.286 711.179 342.143 713.393 341 718.929 341 726.679 345.571 726.679 345.571 730 347.857 726.679 351.286Z" fill="#EFB185" fill-rule="evenodd"/><path d="M781.14 299.396C781.14 299.396 789 296 789 305.057 789 305.057 787.877 317.509 777.772 336.755 777.772 336.755 768.789 353.736 764.298 354.868 758.684 356 725 354.868 725 354.868 725 354.868 727.246 350.34 725 343.547 725 343.547 755.316 340.151 757.561 337.887 759.807 335.623 774.404 300.528 781.14 299.396Z" fill="#9CBC35" fill-rule="evenodd"/><path d="M764.298 354.864C759.807 356 733.982 354.864 725 354.864 725 353.727 725 352.591 725 352.591 725 352.591 758.684 348.045 760.93 345.773 763.175 343.5 777.772 308.273 784.509 307.136 784.509 307.136 786.754 306 789 306 787.877 310.545 785.632 320.773 777.772 336.682 777.772 336.682 768.789 353.727 764.298 354.864Z" fill="#779F29" fill-rule="evenodd"/><path d="M842.706 521.186C863 533.492 863 552.508 842.706 563.695 822.412 576 789.716 576 769.422 563.695 749.127 552.508 748 533.492 768.294 521.186 788.588 510 822.412 510 842.706 521.186Z" fill="#000000" fill-rule="evenodd" fill-opacity="0.101961"/><path d="M782.267 515C782.267 515 782.267 521.692 778.867 525.038 776.6 528.385 763 536.192 764.133 539.538 765.267 542.885 774.333 544 780 537.308 786.8 531.731 787.933 530.615 790.2 530.615 792.467 529.5 797 527.269 793.6 521.692 793.6 521.692 785.667 519.462 782.267 515Z" fill-rule="evenodd"/><path d="M779.25 368C779.25 368 768 420.707 773.625 449.864 773.625 449.864 777 473.414 778.125 480.143 779.25 486.871 779.25 521.636 779.25 521.636 779.25 521.636 789.375 525 793.875 520.514 793.875 520.514 800.625 484.629 792.75 462.2 792.75 462.2 801.75 418.464 801.75 403.886 801.75 390.429 804 378.093 804 378.093L779.25 368Z" fill="#5FB9E6" fill-rule="evenodd"/><path d="M773.714 449.993C773.714 449.993 777.143 473.58 778.286 480.319 779.429 487.058 779.429 521.877 779.429 521.877 779.429 521.877 780.571 521.877 782.857 523 784 511.768 785.143 493.797 786.286 490.428 786.286 483.688 779.429 452.239 779.429 439.884 779.429 428.652 792 383.725 792 383.725 788.571 371.37 788.571 371.37 788.571 371.37 779.429 368 779.429 368 779.429 368 779.429 368 768 420.79 773.714 449.993Z" fill="#77D2FF" fill-rule="evenodd"/><path d="M812.267 529C812.267 529 812.267 534.577 808.867 539.038 806.6 542.385 793 550.192 794.133 553.538 795.267 556.885 804.333 558 810 551.308 816.8 545.731 817.933 544.615 820.2 543.5 822.467 543.5 827 540.154 823.6 534.577 823.6 534.577 815.667 532.346 812.267 529Z" fill-rule="evenodd"/><path d="M823.826 385C823.826 385 834 400.712 829.478 431.014 827.217 468.05 827.217 468.05 827.217 468.05 827.217 468.05 834 479.273 829.478 515.187 823.826 536.511 823.826 536.511 823.826 536.511 823.826 536.511 818.174 541 811.391 532.022 811.391 532.022 812.522 479.273 809.13 471.417 808 464.683 800.087 439.993 796.696 416.424 795.565 407.446 782 392.856 782 386.122L823.826 385Z" fill="#77D2FF" fill-rule="evenodd"/><path d="M823.65 536.875C829.4 515.5 829.4 515.5 829.4 515.5 834 479.5 827.1 468.25 827.1 468.25 829.4 431.125 829.4 431.125 829.4 431.125 834 400.75 823.65 385 823.65 385 822.5 385 822.5 385 822.5 385 811 392.875 811 392.875 811 392.875 811 392.875 822.5 451.375 821.35 466 820.2 480.625 824.8 497.5 824.8 506.5 823.65 513.25 821.35 527.875 819.05 538 822.5 538 823.65 536.875 823.65 536.875Z" fill="#5FB9E6" fill-rule="evenodd"/><path d="M830.607 320.87C830.607 320.87 821.557 302.783 783.098 298.261 783.098 298.261 777.443 296 777.443 316.348 777.443 318.609 775.18 323.13 772.918 326.522 770.656 328.783 765 338.957 777.443 350.261 777.443 350.261 781.967 368.348 776.311 379.652 771.787 389.826 796.672 400 818.164 397.739 820.426 397.739 828.344 394.348 826.082 385.304 823.82 376.261 815.902 361.565 820.426 344.609 824.951 327.652 834 328.783 830.607 320.87Z" fill="#9CBC35" fill-rule="evenodd"/><path d="M830.538 320.038C834 328.962 824.769 326.731 820.154 343.462 815.538 360.192 823.615 375.808 825.923 384.731 828.231 393.654 822.462 395.885 819 395.885 815.538 397 810.923 397 807.462 397 815.538 380.269 804 350.154 804 334.538 804 316.692 820.154 310 820.154 310 828.231 315.577 830.538 320.038 830.538 320.038Z" fill="#779F29" fill-rule="evenodd"/><path d="M775.556 367.857C775.556 367.857 765.222 370 759.482 367.857 754.889 365.714 748 360.357 751.444 360.357 754.889 359.286 762.926 361.429 764.074 359.286 765.222 357.143 759.482 357.143 762.926 356.071 765.222 355 769.815 356.071 777.852 362.5 777.852 362.5 779 364.643 775.556 367.857Z" fill="#EFB185" fill-rule="evenodd"/><path d="M828.375 317.381C828.375 317.381 820.5 314 816 326.397 811.5 338.794 803.625 360.206 803.625 360.206 801.375 362.46 801.375 362.46 801.375 362.46 773.25 359.079 773.25 359.079 773.25 359.079 773.25 359.079 776.625 365.841 771 369.222 771 369.222 804.75 385 814.875 374.857 814.875 374.857 843 321.889 828.375 317.381Z" fill="#779F29" fill-rule="evenodd"/><path d="M773 359.216C801.061 362.627 801.061 362.627 801.061 362.627 803.306 360.353 803.306 360.353 803.306 360.353 803.306 360.353 811.163 338.745 815.653 326.235 820.143 316 825.755 317.137 828 317.137 826.878 334.196 810.041 366.039 810.041 366.039 803.306 374 785.347 368.314 774.122 364.902 774.122 361.49 773 359.216 773 359.216Z" fill="#9CBC35" fill-rule="evenodd"/><path d="M786.286 290.97C786.286 290.97 792 299.939 788.571 307.788 787.429 310.03 784 319 800 316.758 800 316.758 816 310.03 811.429 305.545 808 302.182 805.714 297.697 811.429 282L786.286 290.97Z" fill="#E8A476" fill-rule="evenodd"/><path d="M811 305.609C811 305.609 811 306.739 811 306.739 797.8 309 789 297.696 789 297.696 807.7 283 807.7 283 807.7 283 807.7 283 807.7 283 807.7 283 807.7 283 808.8 284.13 809.9 285.261 805.5 297.696 807.7 302.217 811 305.609Z" fill="#DB9669" fill-rule="evenodd"/><path d="M791.176 263.875C791.176 263.875 786.706 265 785.588 276.25 785.588 277.375 783.353 278.5 783.353 281.875 782.235 285.25 780 297.625 787.824 299.875 793.412 301 806.824 298.75 812.412 286.375 818 274 807.941 256 791.176 263.875Z" fill="#F1B287" fill-rule="evenodd"/><path d="M805.3 288.5C805.3 288.5 807.5 282 810.8 284.167 811.9 285.25 813 286.333 810.8 289.583 809.7 292.833 805.3 295 802 293.917L805.3 288.5Z" fill="#F1B287" fill-rule="evenodd"/><path d="M815.714 266.077C819.143 265 821.429 265 823.714 266.077 826 271.462 824.857 274.692 821.429 279 821.429 276.846 820.286 275.769 819.143 273.615 819.143 273.615 818 272.538 816.857 271.462 815.714 269.308 810 267.154 815.714 266.077Z" fill="#EFF3FC" fill-rule="evenodd"/><path d="M791.914 258.444C797.486 254 804.171 255.111 809.743 256.222 815.314 258.444 820.886 264 822 269.556 822 277.333 818.657 287.333 809.743 291.778 806.4 294 811.971 285.111 807.514 285.111 806.4 285.111 806.4 282.889 805.286 281.778 804.171 282.889 798.6 279.556 793.029 277.333 791.914 277.333 791.914 274 790.8 274 790.8 272.889 789.686 276.222 789.686 276.222 786.343 275.111 784.114 274 784.114 274 783 268.444 787.457 261.778 791.914 258.444Z" fill="#2B0D04" fill-rule="evenodd"/><path d="M806.444 282.25C805.222 284.5 804 286.75 805.222 287.875 806.444 289 808.889 289 811.333 286.75 813.778 284.5 815 282.25 813.778 281.125 812.556 280 808.889 280 806.444 282.25Z" fill="#F1B287" fill-rule="evenodd"/></g></svg>