<svg width="702" height="460" xmlns="http://www.w3.org/2000/svg" xmlns:xlink="http://www.w3.org/1999/xlink" xml:space="preserve" overflow="hidden"><g transform="translate(-289 -130)"><path d="M290 131 773 131 773 440 290 440Z" fill="#E6E6E6"/><path d="M304 170 759 170 759 422 304 422Z" fill="#FFFFFF"/><path d="M290 131 773 131 773 151 290 151Z" fill="#00B0FF"/><path d="M301 141C301 138.791 302.791 137 305 137 307.209 137 309 138.791 309 141 309 143.209 307.209 145 305 145 302.791 145 301 143.209 301 141Z" fill="#FFFFFF" fill-rule="evenodd"/><path d="M316 141C316 138.791 317.567 137 319.5 137 321.433 137 323 138.791 323 141 323 143.209 321.433 145 319.5 145 317.567 145 316 143.209 316 141Z" fill="#FFFFFF" fill-rule="evenodd"/><path d="M330 141C330 138.791 331.791 137 334 137 336.209 137 338 138.791 338 141 338 143.209 336.209 145 334 145 331.791 145 330 143.209 330 141Z" fill="#FFFFFF" fill-rule="evenodd"/><path d="M343 208 600 208 600 353 343 353Z" fill="#00B0FF"/><path d="M636 208 734 208 734 264 636 264Z" fill="#E6E6E6"/><path d="M636 281 734 281 734 336 636 336Z" fill="#E6E6E6"/><path d="M636 354 734 354 734 409 636 409Z" fill="#E6E6E6"/><path d="M343 378 520 378 520 390 343 390Z" fill="#E6E6E6"/><path d="M505 281.082 449 249 449 313 505 281.082 449 249 449 313 505 281.082Z" fill="#FFFFFF" fill-rule="evenodd"/><path d="M866.735 557.517 869 569.586 858 572 859.618 557 866.735 557.517Z" fill="#FFB8B8" fill-rule="evenodd"/><path d="M914 555.526 911.4 568.663 901 569 904.25 553 914 555.526Z" fill="#FFB8B8" fill-rule="evenodd"/><path d="M931.042 421.047C934 441.209 934 441.209 934 441.209 934 441.209 931.042 486.279 930.253 488.453 929.464 490.628 927.295 501.895 927.295 501.895 914.673 555.86 914.673 555.86 914.673 555.86 914.673 555.86 903.629 557.244 901.459 551.314 901.854 519.093 901.854 519.093 901.854 519.093 901.065 482.523 901.065 482.523 901.065 482.523 892.19 440.616 892.19 440.616 892.19 440.616 876.413 497.349 876.413 497.349 876.413 497.349 876.413 497.349 875.821 516.128 873.455 522.849 871.285 529.57 868.327 558.826 868.327 558.826 868.327 558.826 858.861 561 858.072 558.826 857.283 556.651 853.339 503.477 853.339 495.174 853.339 486.872 849 408 849 408L931.042 421.047Z" fill="#2F2E41" fill-rule="evenodd"/><path d="M903.853 568.2C905.06 568.4 906.467 568.4 907.674 568.2 909.082 567.8 907.674 565 907.674 565 912.902 565 912.902 565 912.902 565 912.902 565 918.734 577.6 920.946 578.6 923.359 579.6 931 590 921.951 590 916.321 590 910.891 588.2 906.266 585.2 906.266 585.2 905.261 581 901.038 580.6 896.815 580 894 574.8 894 574.8 898.625 566.4 898.625 566.4 898.625 566.4 899.027 565.6 899.832 565.4 900.636 565.8 900.837 565.8 901.038 566 901.239 566.4 901.842 567.4 902.848 568.4 903.853 568.2Z" fill="#2F2E41" fill-rule="evenodd"/><path d="M865.122 566.2C865.122 566.2 864.108 568.2 863.095 567.2 862.081 566.2 861.473 564.8 860.865 563.6 860.865 563.6 857.622 562 857.216 563.6 856.608 565.2 854.378 573.6 853.365 574.6 852.351 575.6 841 586.8 852.351 588.8 863.5 591 865.73 586.2 865.73 586.2 865.73 586.2 864.108 583.6 867.351 582.6 870.595 581.4 871 577.8 871 577.8 869.378 565.8 869.378 565.8 869.378 565.8 869.378 565.2 868.77 564.6 867.959 564.8 867.554 564.8 867.351 565 867.149 565.2 866.541 566 865.73 566.6 865.122 566.2Z" fill="#2F2E41" fill-rule="evenodd"/><path d="M948.429 369C950.589 408.155 950.589 408.155 950.589 408.155 950.589 408.155 961 433 947.054 432.205 932.911 431.41 941.75 407.36 941.75 407.36 928 372.379 928 372.379 928 372.379L948.429 369Z" fill="#FFB8B8" fill-rule="evenodd"/><path d="M833.077 358C830.663 396.543 830.663 396.543 830.663 396.543 830.663 396.543 820 421 834.485 420.217 848.97 419.435 839.917 395.761 839.917 395.761 854 361.326 854 361.326 854 361.326L833.077 358Z" fill="#FFB8B8" fill-rule="evenodd"/><path d="M873 253.5C873 242.73 881.73 234 892.5 234 903.27 234 912 242.73 912 253.5 912 264.27 903.27 273 892.5 273 881.73 273 873 264.27 873 253.5Z" fill="#FFB8B8" fill-rule="evenodd"/><path d="M908 261C908 261 902.8 281.985 913.4 287.33 924 292.477 880 300 877 287.33 878.6 281.391 878.6 281.391 878.6 281.391 878.6 281.391 884.6 273.868 883 267.137L908 261Z" fill="#FFB8B8" fill-rule="evenodd"/><path d="M896.856 288.29C896.856 288.29 883.775 289.472 879.811 281 879.811 281 849.487 282.97 842.748 310.555 850.676 310.949 860.387 399.613 847.505 408.479 837 415.572 865.541 426.606 904.982 427 935.108 425.621 935.108 425.621 935.108 425.621 929.559 420.695 916.081 358.433 924.604 359.221 924.604 359.221 947 324.15 944.82 318.83 942.64 313.707 939.072 293.019 909.937 284.744 909.937 284.744 909.541 289.078 896.856 288.29Z" fill="#E6E6E6" fill-rule="evenodd"/><path d="M934.758 306C944.379 318.593 944.379 318.593 944.379 318.593 944.379 318.593 954 371.523 951.055 372.31 948.11 373.097 930.242 379 927.297 376.836 924.352 374.474 911 330.596 911 330.596L934.758 306Z" fill="#E6E6E6" fill-rule="evenodd"/><path d="M855.642 302C842.905 310.1 842.905 310.1 842.905 310.1 842.905 310.1 824 362.654 829.373 364.827 834.547 367 864 365.617 864 365.617L855.642 302Z" fill="#E6E6E6" fill-rule="evenodd"/><path d="M913.909 235.465C913.909 235.465 907.19 221 894.344 224.369 881.498 227.737 874.186 232.691 873.593 237.843 873 242.797 873.791 250.525 873.791 250.525 873.791 250.525 875.174 240.023 884.265 242.401 893.158 244.581 907.19 242.797 907.19 242.797 909.561 263.207 909.561 263.207 909.561 263.207 909.561 263.207 911.933 259.442 914.897 261.82 917.664 264 923 240.023 913.909 235.465Z" fill="#2F2E41" fill-rule="evenodd"/><path d="M989.833 589 797 589 797 588 990 588 989.833 589Z" fill="#3F3D56" fill-rule="evenodd"/></g></svg>