<svg width="256" height="256" xmlns="http://www.w3.org/2000/svg" xmlns:xlink="http://www.w3.org/1999/xlink" xml:space="preserve" overflow="hidden"><g transform="translate(-201 -136)"><path d="M379.526 208.111C379.099 237.921 355.949 262.793 325.83 264.89 296.033 266.946 268.982 244.532 265.264 215.246 261.465 185.371 282.253 158.361 311.502 152.213 341.093 146.004 370.094 165.92 377.778 194.12 379.018 198.696 379.465 203.373 379.526 208.111 379.647 216.433 392.655 216.433 392.533 208.111 392.106 178.598 373.959 153.302 346.375 142.599 318.898 131.937 286.504 141.612 267.926 163.766 248.925 186.46 246.991 219.074 262.034 244.292 277.215 269.75 307.577 281.68 336.359 276.463 369.038 270.514 392.086 240.318 392.533 208.111 392.655 199.805 379.647 199.805 379.526 208.111ZM441.798 337.354C441.372 359.065 424.139 376.177 402.249 376.599 380.358 377.002 363.105 358.44 362.678 337.354 362.272 315.647 380.989 298.511 402.249 298.109 424.139 297.707 441.392 316.273 441.798 337.354 441.961 345.66 454.968 345.68 454.806 337.354 454.257 308.573 431.27 285.772 402.249 285.207 373.223 284.663 350.219 309.397 349.671 337.354 349.123 366.14 374.06 388.957 402.249 389.501 431.27 390.046 454.257 365.291 454.806 337.354 454.968 329.028 441.961 329.048 441.798 337.354ZM216.1 383.674C216.385 347.513 234.963 314.054 265.731 294.582 301.137 272.208 347.127 273.862 381.862 296.658 388.875 301.275 395.377 290.088 388.429 285.533 350.077 260.335 300.08 259.246 260.632 282.57 224.983 303.631 203.418 342.795 203.093 383.674 203.032 392 216.039 392 216.1 383.674ZM383.102 324.717C388.226 335.66 393.345 346.607 398.469 357.554 400.481 361.845 407.653 361.682 409.705 357.554L426.211 324.416C429.909 316.976 418.689 310.446 414.971 317.902L398.469 351.04 409.705 351.04C404.585 340.097 399.465 329.15 394.341 318.207 390.806 310.665 379.607 317.22 383.102 324.717Z" fill="#7F7F7F" fill-rule="evenodd"/></g></svg>